<?xml version="1.0" encoding="UTF-8"?>
<svg width="512px" height="512px" viewBox="0 0 512 512" version="1.1" xmlns="http://www.w3.org/2000/svg">
    <title>Dog Silhouette</title>
    <g stroke="none" stroke-width="1" fill="none" fill-rule="evenodd">
        <g fill="#D1D5DB" fill-rule="nonzero">
            <path d="M464.701,88.621 C457.701,72.121 448.201,64.121 436.201,64.121 C431.871,64.121 427.291,65.191 422.541,67.291 C422.541,67.291 422.871,65.951 419.871,58.711 C416.881,51.471 411.541,47.621 401.871,47.291 C392.211,46.961 382.201,54.791 377.871,64.951 C376.031,69.011 374.861,73.451 375.371,77.631 C375.871,81.791 367.371,94.291 358.541,110.451 C349.701,126.621 343.711,138.291 343.711,138.291 C341.711,138.791 332.201,150.954 325.021,167.621 C317.871,184.291 311.871,192.451 308.371,196.121 C304.871,199.791 309.371,203.451 309.371,203.451 C309.371,203.451 308.541,209.621 303.041,214.451 C297.541,219.291 282.871,231.451 270.371,232.121 C257.871,232.786 254.371,233.451 249.041,236.121 C243.711,238.786 235.541,245.954 235.541,245.954 C234.371,246.621 224.541,247.121 219.041,244.451 C213.541,241.786 211.041,240.787 206.871,237.451 C202.711,234.121 199.041,233.787 198.041,229.451 C197.041,225.121 200.041,218.786 197.371,217.451 C194.711,216.121 193.871,215.787 192.871,214.121 C191.871,212.451 191.371,208.121 191.371,205.787 C191.371,203.451 191.371,200.954 192.371,195.121 C193.371,189.287 193.541,183.121 193.371,183.121 C193.201,183.121 194.541,169.121 193.371,165.121 C192.201,161.121 190.041,160.291 185.371,157.121 C180.701,153.954 176.201,150.621 171.371,146.121 C166.541,141.621 164.371,140.291 161.371,141.787 C158.371,143.291 156.701,145.621 154.701,146.787 C152.701,147.954 150.201,147.954 148.201,147.121 C146.201,146.287 145.411,145.821 142.881,144.051 C140.351,142.287 137.711,140.121 135.541,138.621 C133.371,137.121 129.041,136.621 128.041,138.621 C127.041,140.621 128.041,143.621 129.371,145.954 C130.701,148.287 136.041,155.121 139.041,157.621 C142.041,160.121 144.881,164.121 147.041,165.954 C149.201,167.787 154.041,171.121 154.041,171.121 C154.041,171.121 147.711,184.621 145.371,187.787 C143.041,190.954 129.201,216.121 125.541,217.954 C121.871,219.787 113.541,217.787 110.371,219.121 C107.201,220.454 100.371,230.621 97.871,232.621 C95.371,234.621 85.201,238.787 83.371,240.121 C81.541,241.454 72.541,250.954 65.201,257.954 C57.871,264.954 48.701,273.454 45.201,278.121 C41.701,282.787 33.371,297.454 32.201,302.121 C31.031,306.787 33.371,307.954 34.031,311.787 C34.701,315.621 34.701,320.954 37.701,322.787 C40.701,324.621 44.701,326.121 45.201,328.454 C45.701,330.787 45.201,339.121 47.031,343.454 C48.871,347.787 52.701,352.454 56.371,354.787 C60.031,357.121 70.371,362.121 74.031,362.121 C77.701,362.121 80.371,367.121 82.371,373.787 C84.371,380.454 90.001,387.787 93.201,390.954 C96.401,394.121 102.701,397.454 103.871,399.454 C105.031,401.454 106.201,407.121 109.371,414.121 C112.531,421.121 118.701,429.454 123.201,434.454 C127.701,439.454 137.371,446.787 148.041,447.787 C158.701,448.787 167.371,446.787 175.701,445.121 C184.041,443.454 193.201,437.787 195.871,434.121 C198.531,430.454 203.701,424.121 208.871,422.454 C214.041,420.787 225.371,426.121 233.041,426.121 C240.701,426.121 250.371,416.121 253.371,414.787 C256.371,413.454 269.201,409.787 275.201,408.121 C281.201,406.454 286.041,403.121 289.041,398.454 C292.041,393.787 299.871,386.121 303.871,382.787 C307.871,379.454 313.701,374.121 316.371,372.454 C319.031,370.787 325.031,366.787 327.201,364.121 C329.371,361.454 331.031,353.121 331.371,348.121 C331.701,343.121 335.371,339.454 337.701,337.454 C340.031,335.454 348.371,333.454 354.371,332.121 C360.371,330.787 369.371,323.121 372.371,319.454 C375.371,315.787 379.371,305.787 381.031,304.121 C382.701,302.454 392.031,299.121 396.701,287.454 C401.371,275.787 409.871,244.454 412.371,235.454 C414.871,226.454 427.701,216.454 432.201,207.121 C436.701,197.787 440.031,179.454 442.871,167.454 C445.701,155.454 451.201,143.121 455.201,134.121 C459.201,125.121 466.701,93.621 464.701,88.621 Z M370.371,100.121 C370.371,103.954 367.201,107.121 363.371,107.121 C359.531,107.121 356.371,103.954 356.371,100.121 C356.371,96.287 359.531,93.121 363.371,93.121 C367.201,93.121 370.371,96.287 370.371,100.121 Z" id="Shape"></path>
        </g>
    </g>
</svg>
